<svg xmlns="http://www.w3.org/2000/svg" viewBox="0 0 951.64 536.34"><defs><style>.cls-1{fill:none;stroke:#dfdfdf;}.cls-1,.cls-2,.cls-3,.cls-4,.cls-6{stroke-miterlimit:10;}.cls-2{fill:#fbb13c;}.cls-2,.cls-3,.cls-4,.cls-6{stroke:#000;stroke-width:2px;}.cls-3{fill:#7a8547;}.cls-4{fill:#6d2241;}.cls-5,.cls-58{font-size:16px;}.cls-5{fill:#999;}.cls-17,.cls-25,.cls-45,.cls-46,.cls-47,.cls-48,.cls-49,.cls-5,.cls-50,.cls-56,.cls-58,.cls-71{font-family:Rubik-Bold, Rubik;font-weight:700;}.cls-6{fill:#7a789c;}.cls-56,.cls-7{font-size:19px;}.cls-100,.cls-101,.cls-102,.cls-36,.cls-7,.cls-75,.cls-76,.cls-77,.cls-78,.cls-79,.cls-80,.cls-81,.cls-82,.cls-83,.cls-84,.cls-85,.cls-86,.cls-87,.cls-88,.cls-89,.cls-90,.cls-91,.cls-92,.cls-93,.cls-94,.cls-95,.cls-96,.cls-97,.cls-98,.cls-99{font-family:Rubik-Light, Rubik;font-weight:300;}.cls-8{letter-spacing:-0.01em;}.cls-9{letter-spacing:-0.05em;}.cls-10{letter-spacing:-0.02em;}.cls-11{letter-spacing:0em;}.cls-12{letter-spacing:-0.01em;}.cls-13{letter-spacing:-0.01em;}.cls-14{letter-spacing:-0.01em;}.cls-15{letter-spacing:-0.01em;}.cls-16{letter-spacing:-0.02em;}.cls-18{letter-spacing:-0.02em;}.cls-19{letter-spacing:-0.02em;}.cls-20{letter-spacing:0em;}.cls-21{letter-spacing:-0.04em;}.cls-22{letter-spacing:0em;}.cls-23{letter-spacing:-0.07em;}.cls-24{letter-spacing:-0.01em;}.cls-25{font-size:28px;}.cls-26{letter-spacing:-0.01em;}.cls-27,.cls-28,.cls-29,.cls-30,.cls-31,.cls-32,.cls-33,.cls-34,.cls-35,.cls-63{font-family:Rubik-Regular, Rubik;}.cls-27,.cls-28,.cls-29,.cls-30,.cls-31,.cls-32,.cls-33,.cls-34,.cls-35{font-weight:400;}.cls-28{letter-spacing:-0.01em;}.cls-29{letter-spacing:-0.02em;}.cls-30{letter-spacing:-0.02em;}.cls-31{letter-spacing:-0.01em;}.cls-32{letter-spacing:-0.01em;}.cls-33{letter-spacing:-0.02em;}.cls-34{letter-spacing:-0.04em;}.cls-35{letter-spacing:-0.02em;}.cls-36{font-size:29px;}.cls-37{letter-spacing:-0.09em;}.cls-38{letter-spacing:0em;}.cls-39,.cls-45{letter-spacing:0em;}.cls-40{letter-spacing:-0.01em;}.cls-41{letter-spacing:-0.03em;}.cls-42{letter-spacing:-0.02em;}.cls-43{letter-spacing:-0.01em;}.cls-44{letter-spacing:-0.01em;}.cls-46{letter-spacing:0em;}.cls-47,.cls-53{letter-spacing:-0.01em;}.cls-48{letter-spacing:0em;}.cls-49{letter-spacing:-0.01em;}.cls-50{letter-spacing:-0.02em;}.cls-51{letter-spacing:-0.01em;}.cls-52{letter-spacing:-0.02em;}.cls-54{letter-spacing:-0.02em;}.cls-55{letter-spacing:0em;}.cls-56,.cls-58{fill:#4d4545;}.cls-57{letter-spacing:0em;}.cls-59{letter-spacing:-0.01em;}.cls-60{letter-spacing:0em;}.cls-61{letter-spacing:0em;}.cls-62{letter-spacing:-0.01em;}.cls-63{font-size:17px;}.cls-64{letter-spacing:-0.1em;}.cls-65{letter-spacing:0em;}.cls-66{letter-spacing:0em;}.cls-67{letter-spacing:-0.01em;}.cls-68{letter-spacing:0em;}.cls-69{letter-spacing:-0.01em;}.cls-70{letter-spacing:-0.02em;}.cls-71{font-size:11px;}.cls-72{letter-spacing:0em;}.cls-73,.cls-80{letter-spacing:0em;}.cls-74,.cls-91{letter-spacing:-0.01em;}.cls-104,.cls-76{letter-spacing:-0.01em;}.cls-105,.cls-77{letter-spacing:-0.19em;}.cls-78{letter-spacing:-0.02em;}.cls-107,.cls-79{letter-spacing:-0.04em;}.cls-81{letter-spacing:-0.04em;}.cls-110,.cls-82{letter-spacing:-0.01em;}.cls-83{letter-spacing:0em;}.cls-84{letter-spacing:-0.01em;}.cls-85{letter-spacing:-0.03em;}.cls-86{letter-spacing:-0.01em;}.cls-87{letter-spacing:-0.02em;}.cls-116,.cls-88{letter-spacing:-0.01em;}.cls-89{letter-spacing:-0.01em;}.cls-112,.cls-90{letter-spacing:-0.05em;}.cls-92{letter-spacing:-0.04em;}.cls-111,.cls-93{letter-spacing:-0.02em;}.cls-94{letter-spacing:-0.02em;}.cls-95{letter-spacing:-0.02em;}.cls-96{letter-spacing:-0.04em;}.cls-97{letter-spacing:-0.02em;}.cls-98{letter-spacing:-0.02em;}.cls-99{letter-spacing:0em;}.cls-100{letter-spacing:0em;}.cls-101{letter-spacing:-0.03em;}.cls-102{letter-spacing:-0.01em;}.cls-103{letter-spacing:3.01em;}.cls-106{letter-spacing:-0.02em;}.cls-108{letter-spacing:-0.02em;}.cls-109{letter-spacing:-0.01em;}.cls-113{letter-spacing:-0.03em;}.cls-114{letter-spacing:-0.06em;}.cls-115{letter-spacing:-0.05em;}</style></defs><g id="Layer_3" data-name="Layer 3"><line class="cls-1" x1="149.89" y1="226.95" x2="149.89" y2="466.6"/><line class="cls-1" x1="240.97" y1="226.85" x2="240.97" y2="466.5"/><line class="cls-1" x1="512.6" y1="89.53" x2="512.6" y2="452.74"/><line class="cls-1" x1="421.97" y1="148.83" x2="421.97" y2="465.28"/><line class="cls-1" x1="330.97" y1="225.85" x2="330.97" y2="465.5"/><rect class="cls-2" x="149.89" y="46.5" width="374.22" height="45.77"/><rect class="cls-2" x="150.08" y="262.13" width="78.42" height="45"/><rect class="cls-3" x="149.89" y="92.26" width="330.88" height="45"/><rect class="cls-4" x="150.08" y="351.24" width="90.36" height="45"/><rect class="cls-4" x="149.89" y="137.49" width="358.64" height="45"/><rect class="cls-3" x="150.08" y="306.64" width="118.57" height="45"/><text class="cls-5" transform="translate(502.42 482.11)">80</text><text class="cls-5" transform="translate(408.21 482.27)">60</text><text class="cls-5" transform="translate(320.33 482.11)">40</text><text class="cls-5" transform="translate(230.31 482.43)">20</text><text class="cls-5" transform="translate(145.04 485.66)">0</text><rect class="cls-6" x="149.89" y="182.03" width="248.41" height="45"/><rect class="cls-6" x="150.08" y="396.88" width="201.9" height="45"/></g><g id="Layer_2" data-name="Layer 2"><text x="-30.1" y="-16.67"/><text class="cls-7" transform="translate(572.34 380.02)">Pfi<tspan class="cls-8" x="21.34" y="0">z</tspan><tspan x="30.51" y="0">e</tspan><tspan class="cls-9" x="40.89" y="0">r</tspan><tspan x="46.47" y="0">, Moderna, and Johnson &amp; Johnson</tspan><tspan x="26.81" y="22.8">clinical</tspan><tspan class="cls-10" x="85.59" y="22.8"> </tspan><tspan class="cls-11" x="90.08" y="22.8">trials included 20+ pe</tspan><tspan class="cls-12" x="275.38" y="22.8">r</tspan><tspan x="281.77" y="22.8">ce</tspan><tspan class="cls-13" x="302.32" y="22.8">n</tspan><tspan class="cls-11" x="313.38" y="22.8">t </tspan><tspan x="1.58" y="45.6">participa</tspan><tspan class="cls-14" x="76.11" y="45.6">n</tspan><tspan x="87.17" y="45.6">ts </tspan><tspan class="cls-15" x="108.24" y="45.6">o</tspan><tspan class="cls-16" x="118.71" y="45.6">f</tspan><tspan x="125.11" y="45.6"> </tspan><tspan class="cls-17" x="130.02" y="45.6">Hispanic origin</tspan><tspan x="271.58" y="45.6">, a highe</tspan><tspan class="cls-18" x="344.18" y="45.6">r</tspan><tspan x="1.67" y="68.4">p</tspan><tspan class="cls-12" x="12.71" y="68.4">r</tspan><tspan x="19.09" y="68.4">oportion</tspan><tspan class="cls-19" x="90.82" y="68.4"> </tspan><tspan x="95.3" y="68.4">than</tspan><tspan class="cls-16" x="134.75" y="68.4"> </tspan><tspan x="139.21" y="68.4">within</tspan><tspan class="cls-10" x="191.88" y="68.4"> </tspan><tspan class="cls-11" x="196.36" y="68.4">the US popul</tspan><tspan class="cls-20" x="307.28" y="68.4">a</tspan><tspan class="cls-11" x="317.37" y="68.4">tion</tspan><tspan class="cls-21" x="145.52" y="91.2">(</tspan><tspan class="cls-22" x="150.92" y="91.2">1</tspan><tspan class="cls-23" x="158.48" y="91.2">7</tspan><tspan class="cls-24" x="166.42" y="91.2">.</tspan><tspan x="170.68" y="91.2">6%).</tspan></text><text class="cls-25" transform="translate(0 23.8)">4<tspan class="cls-26" x="19.12" y="0">0,</tspan><tspan x="45.56" y="0">000</tspan><tspan class="cls-27" x="102.68" y="0" xml:space="preserve"> people </tspan><tspan class="cls-28" x="204.01" y="0">o</tspan><tspan class="cls-29" x="219.91" y="0">f</tspan><tspan class="cls-27" x="230.07" y="0" xml:space="preserve"> Hispanic origin</tspan><tspan class="cls-30" x="430.13" y="0"> </tspan><tspan class="cls-31" x="436.35" y="0">w</tspan><tspan class="cls-27" x="458.41" y="0">e</tspan><tspan class="cls-32" x="474.09" y="0">r</tspan><tspan class="cls-27" x="484.45" y="0">e included in C</tspan><tspan class="cls-33" x="674.96" y="0">O</tspan><tspan class="cls-27" x="693.35" y="0">VID</tspan><tspan class="cls-34" x="738.63" y="0">-</tspan><tspan class="cls-27" x="751.15" y="0">19 clinical</tspan><tspan class="cls-35" x="877.09" y="0"> </tspan><tspan class="cls-27" x="883.36" y="0">trials</tspan></text><text class="cls-36" transform="translate(544.95 249.21)"><tspan class="cls-37">T</tspan><tspan x="13.43" y="0">rial d</tspan><tspan class="cls-38" x="76.36" y="0">a</tspan><tspan class="cls-39" x="91.75" y="0">ta sh</tspan><tspan class="cls-40" x="156.6" y="0">ow</tspan><tspan x="194.82" y="0">ed</tspan><tspan class="cls-41" x="227.47" y="0"> </tspan><tspan class="cls-42" x="234.17" y="0">v</tspan><tspan x="249.17" y="0">accin</tspan><tspan class="cls-38" x="319.37" y="0">a</tspan><tspan class="cls-39" x="334.77" y="0">tions </tspan><tspan x="12.19" y="34.8">a</tspan><tspan class="cls-43" x="27.74" y="34.8">r</tspan><tspan class="cls-39" x="37.48" y="34.8">e b</tspan><tspan class="cls-44" x="77.62" y="34.8">o</tspan><tspan x="93.62" y="34.8">th </tspan><tspan class="cls-45" x="128.66" y="34.8">s</tspan><tspan class="cls-46" x="144.69" y="34.8">a</tspan><tspan class="cls-47" x="161.69" y="34.8">f</tspan><tspan class="cls-17" x="174.33" y="34.8">e and </tspan><tspan class="cls-48" x="257.97" y="34.8">e</tspan><tspan class="cls-49" x="275.08" y="34.8">ff</tspan><tspan class="cls-17" x="298.25" y="34.8">ecti</tspan><tspan class="cls-50" x="354.42" y="34.8">v</tspan><tspan class="cls-17" x="371.09" y="34.8">e </tspan><tspan class="cls-51" x="17.31" y="69.6">f</tspan><tspan x="27.43" y="69.6">o</tspan><tspan class="cls-52" x="43.62" y="69.6">r</tspan><tspan x="53.01" y="69.6" xml:space="preserve"> people </tspan><tspan class="cls-53" x="156.05" y="69.6">o</tspan><tspan class="cls-54" x="172.03" y="69.6">f</tspan><tspan class="cls-55" x="181.8" y="69.6" xml:space="preserve"> Hispanic origin.</tspan></text><text class="cls-56" transform="translate(6.46 142.27)">Non<tspan class="cls-57" x="37.49" y="0">-</tspan><tspan x="46.49" y="0">Hispanic</tspan></text><text class="cls-56" transform="translate(53.42 349.78)">Hispanic</text><text class="cls-58" transform="translate(302.59 503.48)"><tspan class="cls-59">P</tspan><tspan x="10.72" y="0">e</tspan><tspan class="cls-60" x="20.22" y="0">r</tspan><tspan class="cls-61" x="27.41" y="0">ce</tspan><tspan class="cls-62" x="46.35" y="0">n</tspan><tspan x="56.54" y="0">t</tspan></text><text x="-30.1" y="-16.67"/><text x="-30.1" y="-16.67"/><text class="cls-63" transform="translate(607.09 99.93)"><tspan class="cls-64">T</tspan><tspan class="cls-65" x="8.21" y="0">o</tspan><tspan class="cls-66" x="17.88" y="0">tal </tspan><tspan class="cls-67" x="42.21" y="0">P</tspan><tspan x="53.01" y="0">opul</tspan><tspan class="cls-68" x="87.26" y="0">a</tspan><tspan x="96.56" y="0">tion</tspan><tspan class="cls-69" x="0" y="20.4">A</tspan><tspan x="11.29" y="20.4">ge 16+</tspan></text><text class="cls-63" transform="translate(607.2 152.5)">Pfi<tspan class="cls-69" x="20.25" y="0">z</tspan><tspan x="28.8" y="0">e</tspan><tspan class="cls-70" x="38.32" y="0">r</tspan></text><text class="cls-63" transform="translate(781.99 105.21)">Moderna</text><rect class="cls-2" x="581.04" y="91.22" width="17.94" height="17.94"/><rect class="cls-3" x="581.04" y="137.99" width="17.94" height="17.94"/><rect class="cls-4" x="755.34" y="91.22" width="17.94" height="17.94"/><text class="cls-63" transform="translate(781.99 147.3)">Johnson &amp; <tspan x="0" y="20.4">Johnson</tspan></text><rect class="cls-6" x="755.34" y="137.99" width="17.94" height="17.94"/><text class="cls-71" transform="translate(7.79 520.23)">D<tspan class="cls-72" x="7.88" y="0">a</tspan><tspan class="cls-73" x="14.32" y="0">ta sou</tspan><tspan class="cls-74" x="48.15" y="0">r</tspan><tspan class="cls-73" x="53.09" y="0">ces</tspan><tspan class="cls-75" x="72.19" y="0">: </tspan><tspan class="cls-76" x="77.68" y="0">h</tspan><tspan class="cls-75" x="84.09" y="0">ttps:</tspan><tspan class="cls-77" x="106.45" y="0">/</tspan><tspan class="cls-78" x="109.36" y="0">/</tspan><tspan class="cls-75" x="114.14" y="0">ww</tspan><tspan class="cls-79" x="131.43" y="0">w</tspan><tspan class="cls-80" x="139.61" y="0">.k</tspan><tspan class="cls-81" x="147.59" y="0">ff</tspan><tspan class="cls-82" x="154.22" y="0">.</tspan><tspan class="cls-83" x="156.71" y="0">o</tspan><tspan class="cls-84" x="162.84" y="0">r</tspan><tspan class="cls-83" x="166.53" y="0">g</tspan><tspan class="cls-85" x="172.92" y="0">/</tspan><tspan class="cls-86" x="177.62" y="0">r</tspan><tspan class="cls-75" x="181.36" y="0">acial-equit</tspan><tspan class="cls-87" x="234.56" y="0">y</tspan><tspan class="cls-88" x="240.15" y="0">-</tspan><tspan class="cls-75" x="245.36" y="0">and-health-poli</tspan><tspan class="cls-89" x="323.63" y="0">c</tspan><tspan class="cls-90" x="329.37" y="0">y</tspan><tspan class="cls-75" x="334.72" y="0">/issue-bri</tspan><tspan class="cls-91" x="383.5" y="0">e</tspan><tspan class="cls-92" x="389.45" y="0">f</tspan><tspan class="cls-85" x="393.02" y="0">/</tspan><tspan class="cls-86" x="397.71" y="0">r</tspan><tspan class="cls-75" x="401.45" y="0">acial-di</tspan><tspan class="cls-93" x="438.26" y="0">v</tspan><tspan class="cls-75" x="443.96" y="0">ersit</tspan><tspan class="cls-87" x="465.6" y="0">y</tspan><tspan class="cls-94" x="471.19" y="0">-</tspan><tspan class="cls-75" x="476.37" y="0">within-c</tspan><tspan class="cls-95" x="518.12" y="0">o</tspan><tspan class="cls-75" x="524.06" y="0">vid</tspan><tspan class="cls-96" x="538.79" y="0">-</tspan><tspan class="cls-75" x="543.69" y="0">1</tspan><tspan class="cls-93" x="548.07" y="0">9</tspan><tspan class="cls-97" x="554.16" y="0">-</tspan><tspan class="cls-98" x="559.27" y="0">v</tspan><tspan class="cls-99" x="564.96" y="0">accine-clinical</tspan><tspan class="cls-98" x="636.98" y="0">-</tspan><tspan class="cls-100" x="642.13" y="0">trial</tspan><tspan class="cls-84" x="660.73" y="0">s</tspan><tspan class="cls-75" x="666" y="0">-</tspan><tspan class="cls-101" x="671.36" y="0">k</tspan><tspan class="cls-93" x="676.44" y="0">e</tspan><tspan class="cls-87" x="682.25" y="0">y</tspan><tspan class="cls-75" x="687.83" y="0">-question</tspan><tspan class="cls-102" x="736.47" y="0">s-</tspan><tspan class="cls-99" x="746.95" y="0">and</tspan><tspan class="cls-102" x="765.71" y="0">-</tspan><tspan class="cls-75" x="770.93" y="0">an</tspan><tspan class="cls-84" x="783.31" y="0">sw</tspan><tspan class="cls-75" x="797.09" y="0">er;</tspan><tspan class="cls-75"><tspan class="cls-103" x="0" y="13.2" xml:space="preserve">		</tspan><tspan x="72" y="13.2" xml:space="preserve">  </tspan><tspan class="cls-104" x="77.68" y="13.2">h</tspan><tspan x="84.09" y="13.2">ttps:</tspan><tspan class="cls-105" x="106.44" y="13.2">/</tspan><tspan class="cls-106" x="109.36" y="13.2">/</tspan><tspan x="114.13" y="13.2">ww</tspan><tspan class="cls-107" x="131.42" y="13.2">w</tspan><tspan class="cls-108" x="139.61" y="13.2">.</tspan><tspan class="cls-109" x="141.96" y="13.2">f</tspan><tspan x="145.8" y="13.2">da</tspan><tspan class="cls-110" x="158.07" y="13.2">.</tspan><tspan x="160.56" y="13.2">g</tspan><tspan class="cls-111" x="166.95" y="13.2">o</tspan><tspan class="cls-112" x="172.89" y="13.2">v</tspan><tspan class="cls-113" x="178.28" y="13.2">/</tspan><tspan x="182.98" y="13.2">media/14621</tspan><tspan class="cls-114" x="246.28" y="13.2">7</tspan><tspan class="cls-115" x="250.95" y="13.2">/</tspan><tspan x="255.48" y="13.2">d</tspan><tspan class="cls-116" x="261.86" y="13.2">o</tspan><tspan x="267.85" y="13.2">wnloads/</tspan></tspan></text></g></svg>